<svg xmlns="http://www.w3.org/2000/svg" version="1.1" xmlns:xlink="http://www.w3.org/1999/xlink" width="1000" height="1000"><g clip-path="url(#SvgjsClipPath1027)"><rect width="1000" height="1000" fill="#ffffff"></rect><g transform="matrix(0.875,0,0,0.875,150,150)"><svg xmlns="http://www.w3.org/2000/svg" version="1.1" xmlns:xlink="http://www.w3.org/1999/xlink" width="800px" height="800px"><svg width="800px" height="800px" viewBox="0 0 24 24" fill="none" xmlns="http://www.w3.org/2000/svg">

<g id="SVGRepo_bgCarrier" stroke-width="0"></g>

<g id="SVGRepo_tracerCarrier" stroke-linecap="round" stroke-linejoin="round"></g>

<g id="SVGRepo_iconCarrier"> <path d="M4 5C4 4.44772 4.44772 4 5 4H12C12.5523 4 13 4.44772 13 5V21H4V5Z" stroke="#7f22fe" stroke-width="2" stroke-linecap="round" stroke-linejoin="round"></path> <path d="M13 11.5H18V19C18 20.1046 18.8954 21 20 21V21C21.1046 21 22 20.1046 22 19V9M17.5 2L20.5 4.66667M20.5 4.66667L22 6V9M20.5 4.66667V9H22" stroke="#7f22fe" stroke-width="2" stroke-linecap="round" stroke-linejoin="round"></path> <path d="M15 21L2 21" stroke="#7f22fe" stroke-width="2" stroke-linecap="round" stroke-linejoin="round"></path> <path d="M10 8L7 8" stroke="#7f22fe" stroke-width="2" stroke-linecap="round" stroke-linejoin="round"></path> </g>

</svg></svg></g></g><defs><clipPath id="SvgjsClipPath1027"><rect width="1000" height="1000" x="0" y="0" rx="500" ry="500"></rect></clipPath></defs></svg>